# xmcd
# 
# Track frame offsets:
#     150
#     24175
#     43179
#     62510
#     73347
#     92162
#     120473
#     140180
#     159843
#     182221
# 
# Disc length: 2761
# 
# Revision: 0
# Processed by: cddbd v1.5.2PL0 Copyright (c) Steve Scherf et al.
# Submitted via: fre:ac v1.0.27
# 
DISCID=890ac70a
DTITLE=Pete Morton - Casa Abierta
DYEAR=2008
DGENRE=Folk
TTITLE0=Casa Abierta
TTITLE1=Ta me mo shui
TTITLE2=Dilbar
TTITLE3=Dat du mien leevsten büst
TTITLE4=La Corrida
TTITLE5=Malaika
TTITLE6=Avond
TTITLE7=Trên arrall
TTITLE8=Karwan
TTITLE9=Arirang
EXTD=
EXTT0=
EXTT1=
EXTT2=
EXTT3=
EXTT4=
EXTT5=
EXTT6=
EXTT7=
EXTT8=
EXTT9=
PLAYORDER=
